# xmcd
#
# Track frame offsets:
#	150
#	11900
#	41500
#	63205
#	75275
#	90285
#	124302
#	156572
#	187040
#	205932
#	260450
#	274677
#	289107
#	310700
#
# Disc length: 4485
#
# Revision: 1
# Processed by: cddbd v1.5.1PL0 Copyright (c) Steve Scherf et al.
# Submitted via: CDex 1.50beta9
# Normalized: r0:DSETVAR1,TDELIM( - )
#
DISCID=bd11830e
DTITLE=Various Artist - Atlantic Sounds
DYEAR=2000
DGENRE=Jazz
TTITLE0=Gonna Hang Me Up A Sign - Brother Jack Mcduff
TTITLE1=Vibrafinger - Gary Burton
TTITLE2=Poopsie's Minor - Leo Wright
TTITLE3=I Can Dig It - Booker T&The MG's
TTITLE4=WindJammer - MongoSantamaria
TTITLE5=Memphis Soul Stew - King Curtis
TTITLE6=Carry On Brother - Eddie Harris and Les Mccann
TTITLE7=Live Humble - Yusef Lateef
TTITLE8=Broasted Or Fried - Clarence Wheeler and The Enforcers
TTITLE9=The Ghetto - Donny Hathaway
TTITLE10=Vacant Lot - Black Magic
TTITLE11=Tighten Up(Part1) - Archie Bell&The Drells
TTITLE12=Hey Stuff! - Valerie Capers
TTITLE13=Volunteered Slavely - Roland Kirk
EXTD=YEAR: 2000
EXTT0=
EXTT1=
EXTT2=
EXTT3=
EXTT4=
EXTT5=
EXTT6=
EXTT7=
EXTT8=
EXTT9=
EXTT10=
EXTT11=
EXTT12=
EXTT13=
PLAYORDER=
